<svg xmlns="http://www.w3.org/2000/svg" width="48" height="36" viewBox="0 0 48 36">
  <g id="Group_5014" data-name="Group 5014" transform="translate(-822 -809)">
    <g id="__TEMP__SVG__" transform="translate(820 811)">
      <path id="Path_6877" data-name="Path 6877" d="M41,39a4.011,4.011,0,0,0,4-4V10a4.012,4.012,0,0,0-4-4H7a4.012,4.012,0,0,0-4,4V35a4.011,4.011,0,0,0,4,4H0c0,2.2,6,3,9,3H39c3,0,9-.8,9-3H41ZM7,10H41V35.5H7ZM24,40.75a2,2,0,1,1,2-2A2.006,2.006,0,0,1,24,40.75Z" transform="translate(2 -8)" fill="#88ac48"/>
    </g>
  </g>
</svg>
