<svg xmlns="http://www.w3.org/2000/svg" xmlns:xlink="http://www.w3.org/1999/xlink" width="48" height="48" viewBox="0 0 48 48">
  <defs>
    <clipPath id="clip-path">
      <rect id="Rectangle_225" data-name="Rectangle 225" width="48" height="48" rx="10" transform="translate(828 803)" fill="#ff2366" opacity="0.17"/>
    </clipPath>
  </defs>
  <g id="Mask_Group_44" data-name="Mask Group 44" transform="translate(-828 -803)" clip-path="url(#clip-path)">
    <g id="__TEMP__SVG__" transform="translate(828 803)">
      <path id="Path_6876" data-name="Path 6876" d="M1.92,8.928A1.92,1.92,0,0,0,0,10.848v26.3a1.92,1.92,0,0,0,1.92,1.92H46.08A1.92,1.92,0,0,0,48,37.152v-26.3a1.92,1.92,0,0,0-1.92-1.92Zm26.748,8.983a7.326,7.326,0,0,1,2.7.5l-.408,2.567-.27-.137a5.242,5.242,0,0,0-2.256-.455c-1.18,0-1.725.526-1.725,1.019-.007.555.637.921,1.69,1.468,1.738.845,2.542,1.87,2.531,3.217-.023,2.458-2.08,4.047-5.247,4.047a8.983,8.983,0,0,1-3.357-.632l.423-2.652.389.189a5.961,5.961,0,0,0,2.836.621c.866,0,1.8-.363,1.8-1.157.006-.518-.389-.888-1.562-1.469-1.143-.567-2.658-1.516-2.641-3.217C23.593,19.518,25.691,17.911,28.668,17.911Zm-24.423.377H9.109a1.262,1.262,0,0,1,1.367.947l1.049,5.412s0,0,0,0l.315,1.622,2.953-7.983h3.2L13.239,29.973l-3.192,0L7.506,20.547a8.535,8.535,0,0,1,3.545,3,8.465,8.465,0,0,0-.769-1.308,10.547,10.547,0,0,0-1.533-1.485,11.379,11.379,0,0,0-4.541-2.236l.037-.233Zm15.014.013h3.125L20.428,29.969H17.3Zm17.647,0h2.367l2.478,11.667H38.91s-.282-1.34-.373-1.749l-3.921,0c-.119.316-.645,1.753-.645,1.753H30.756l4.547-10.7a1.517,1.517,0,0,1,1.6-.969Zm.233,3.138c-.154.434-.421,1.135-.4,1.1,0,0-.962,2.565-1.213,3.231l2.527,0c-.122-.578-.7-3.337-.7-3.337l-.205-1Z"/>
    </g>
  </g>
</svg>
